<?xml version="1.0" encoding="UTF-8"?>
<!DOCTYPE svg PUBLIC "-//W3C//DTD SVG 1.1//EN" "http://www.w3.org/Graphics/SVG/1.1/DTD/svg11.dtd">
<svg xmlns="http://www.w3.org/2000/svg" version="1.1" width="25px" height="25px" style="shape-rendering:geometricPrecision; text-rendering:geometricPrecision; image-rendering:optimizeQuality; fill-rule:evenodd; clip-rule:evenodd" xmlns:xlink="http://www.w3.org/1999/xlink">
<g><path style="opacity:0.858" fill="#fefffe" d="M 11.5,-0.5 C 13.8333,-0.5 16.1667,-0.5 18.5,-0.5C 18.5,1.16667 18.5,2.83333 18.5,4.5C 17.1667,4.5 15.8333,4.5 14.5,4.5C 14.5,5.83333 14.5,7.16667 14.5,8.5C 15.8333,8.5 17.1667,8.5 18.5,8.5C 18.5,10.1667 18.5,11.8333 18.5,13.5C 17.1667,13.5 15.8333,13.5 14.5,13.5C 14.5,17.1667 14.5,20.8333 14.5,24.5C 12.8333,24.5 11.1667,24.5 9.5,24.5C 9.5,20.8333 9.5,17.1667 9.5,13.5C 8.16667,13.5 6.83333,13.5 5.5,13.5C 5.5,11.8333 5.5,10.1667 5.5,8.5C 6.83333,8.5 8.16667,8.5 9.5,8.5C 9.06525,5.16248 9.73192,2.16248 11.5,-0.5 Z"/></g>
</svg>
