<?xml version="1.0" encoding="UTF-8"?>
<!DOCTYPE svg PUBLIC "-//W3C//DTD SVG 1.1//EN" "http://www.w3.org/Graphics/SVG/1.1/DTD/svg11.dtd">
<svg xmlns="http://www.w3.org/2000/svg" version="1.1" width="24px" height="24px" style="shape-rendering:geometricPrecision; text-rendering:geometricPrecision; image-rendering:optimizeQuality; fill-rule:evenodd; clip-rule:evenodd" xmlns:xlink="http://www.w3.org/1999/xlink">
<g><path style="opacity:0.714" fill="#fefffe" d="M 2.5,-0.5 C 8.5,-0.5 14.5,-0.5 20.5,-0.5C 21.1667,0.833333 22.1667,1.83333 23.5,2.5C 23.5,8.5 23.5,14.5 23.5,20.5C 22.1667,21.1667 21.1667,22.1667 20.5,23.5C 14.5,23.5 8.5,23.5 2.5,23.5C 1.83333,22.1667 0.833333,21.1667 -0.5,20.5C -0.5,14.5 -0.5,8.5 -0.5,2.5C 0.833333,1.83333 1.83333,0.833333 2.5,-0.5 Z M 19.5,3.5 C 20.6507,8.65025 20.8174,13.9836 20,19.5C 14.5538,20.8059 9.0538,20.8059 3.5,19.5C 2.21404,14.189 2.21404,8.85563 3.5,3.5C 8.963,2.19389 14.2963,2.19389 19.5,3.5 Z M 11.5,7.5 C 17.0514,11.5649 16.3848,13.7315 9.5,14C 7.93285,11.0944 8.59952,8.92771 11.5,7.5 Z"/></g>
<g><path style="opacity:0.729" fill="#fefffe" d="M 19.5,3.5 C 19.5,4.5 19.5,5.5 19.5,6.5C 18.5,6.5 17.5,6.5 16.5,6.5C 16.5,5.5 16.5,4.5 16.5,3.5C 17.5,3.5 18.5,3.5 19.5,3.5 Z"/></g>
<g><path style="opacity:0.646" fill="#fefffe" d="M 16.5,6.5 C 19.8324,12.5082 18.1657,16.5082 11.5,18.5C 5.55899,16.8296 3.72565,13.163 6,7.5C 9.25502,4.10899 12.755,3.77566 16.5,6.5 Z M 11.5,7.5 C 8.59952,8.92771 7.93285,11.0944 9.5,14C 16.3848,13.7315 17.0514,11.5649 11.5,7.5 Z"/></g>
</svg>
