<?xml version="1.0" encoding="UTF-8"?>
<!DOCTYPE svg PUBLIC "-//W3C//DTD SVG 1.1//EN" "http://www.w3.org/Graphics/SVG/1.1/DTD/svg11.dtd">
<svg xmlns="http://www.w3.org/2000/svg" version="1.1" width="24px" height="24px" style="shape-rendering:geometricPrecision; text-rendering:geometricPrecision; image-rendering:optimizeQuality; fill-rule:evenodd; clip-rule:evenodd" xmlns:xlink="http://www.w3.org/1999/xlink">
<g><path style="opacity:0.736" fill="#fefffe" d="M 6.5,-0.5 C 9.83333,-0.5 13.1667,-0.5 16.5,-0.5C 23.1474,5.21091 23.1474,11.0442 16.5,17C 14.4325,17.6869 12.4325,17.5202 10.5,16.5C 9.2172,18.7301 8.2172,21.0634 7.5,23.5C 6.83333,23.5 6.16667,23.5 5.5,23.5C 5.31872,20.6029 5.65205,17.7695 6.5,15C 6.33333,14.5 6.16667,14 6,13.5C 5,14.8333 4,14.8333 3,13.5C 0.267222,7.72218 1.43389,3.05552 6.5,-0.5 Z M 8.5,2.5 C 14.7839,1.61892 17.6172,4.28559 17,10.5C 16.3333,12.5 15,13.8333 13,14.5C 12.0565,13.737 11.5565,12.737 11.5,11.5C 12.6145,9.26749 12.6145,7.10082 11.5,5C 8.45191,4.36545 6.78524,5.69879 6.5,9C 6.73546,9.87318 7.0688,10.7065 7.5,11.5C 7.15431,12.6956 6.65431,12.6956 6,11.5C 4.92712,7.90027 5.76045,4.90027 8.5,2.5 Z"/></g>
</svg>
